<svg width="142" height="116" viewBox="0 0 142 116" fill="none" xmlns="http://www.w3.org/2000/svg">
<mask id="mask0_238_1286" style="mask-type:luminance" maskUnits="userSpaceOnUse" x="-10" y="0" width="151" height="116">
<path d="M132.95 0H-1.5C-5.91828 0 -9.5 3.58172 -9.5 8V108C-9.5 112.418 -5.91828 116 -1.5 116H132.95C137.368 116 140.95 112.418 140.95 108V8C140.95 3.58172 137.368 0 132.95 0Z" fill="#5AFFF3"/>
</mask>
<g mask="url(#mask0_238_1286)">
<path d="M5.15188 97.3208C30.6311 97.3208 51.2862 76.6658 51.2862 51.1865C51.2862 25.7073 30.6311 5.05225 5.15188 5.05225C-20.3274 5.05225 -40.9824 25.7073 -40.9824 51.1865C-40.9824 76.6658 -20.3274 97.3208 5.15188 97.3208Z" fill="white"/>
<path d="M-38.7393 35.7739L13.0634 60.5096" stroke="white" stroke-width="0.958196"/>
<path d="M-21.3711 6.35815L18.2222 51.4503" stroke="white" stroke-width="0.958196"/>
<path d="M-17.2568 2.04443L26.3108 8.9712" stroke="white" stroke-width="0.958196"/>
<path d="M-19.665 95.0024L7.13826 107.45" stroke="white" stroke-width="0.958196"/>
<path d="M17.4766 106.547L47.693 99.1187" stroke="white" stroke-width="0.958196"/>
<path d="M35.3447 13.1877L56.9277 40.5932" stroke="white" stroke-width="0.958196"/>
<path d="M59.5393 50.1299L54.3193 92.7936" stroke="white" stroke-width="0.958196"/>
<path d="M32.4404 70.8267L49.553 93.7272" stroke="white" stroke-width="0.958196"/>
<path d="M29.6958 14.4082L27.6592 49.6881" stroke="white" stroke-width="0.958196"/>
<path d="M55.1214 47.3186L36.3408 57.6157" stroke="white" stroke-width="0.958196"/>
<path d="M20.863 72.7148L10.249 102.225" stroke="white" stroke-width="1.27759"/>
<path d="M14.6989 67.8081L-19.4004 90.0791" stroke="white" stroke-width="0.958196"/>
<path d="M39.8555 60.8101C39.8555 69.6466 32.692 76.8101 23.8555 76.8101C15.0189 76.8101 7.85547 69.6466 7.85547 60.8101C7.85547 51.9735 15.0189 44.8101 23.8555 44.8101C32.692 44.8101 39.8555 51.9735 39.8555 60.8101Z" fill="url(#paint0_linear_238_1286)"/>
<path d="M23.854 74.7782C31.5685 74.7782 37.8223 68.5243 37.8223 60.8099C37.8223 53.0954 31.5685 46.8416 23.854 46.8416C16.1396 46.8416 9.88574 53.0954 9.88574 60.8099C9.88574 68.5243 16.1396 74.7782 23.854 74.7782Z" fill="#24383F"/>
<path d="M31.3417 14.4947C34.3231 14.4947 36.74 12.0778 36.74 9.09634C36.74 6.11492 34.3231 3.698 31.3417 3.698C28.3603 3.698 25.9434 6.11492 25.9434 9.09634C25.9434 12.0778 28.3603 14.4947 31.3417 14.4947Z" stroke="url(#paint1_linear_238_1286)" stroke-width="0.954778"/>
<path d="M59.8485 50.1333C62.83 50.1333 65.2469 47.7164 65.2469 44.735C65.2469 41.7536 62.83 39.3367 59.8485 39.3367C56.8671 39.3367 54.4502 41.7536 54.4502 44.735C54.4502 47.7164 56.8671 50.1333 59.8485 50.1333Z" stroke="url(#paint2_linear_238_1286)" stroke-width="0.954778"/>
<path d="M53.0478 103.051C56.0292 103.051 58.4461 100.634 58.4461 97.6525C58.4461 94.6711 56.0292 92.2542 53.0478 92.2542C50.0663 92.2542 47.6494 94.6711 47.6494 97.6525C47.6494 100.634 50.0663 103.051 53.0478 103.051Z" stroke="url(#paint3_linear_238_1286)" stroke-width="0.954778"/>
<path d="M12.5194 112.5C15.5009 112.5 17.9178 110.083 17.9178 107.102C17.9178 104.121 15.5009 101.704 12.5194 101.704C9.53801 101.704 7.12109 104.121 7.12109 107.102C7.12109 110.083 9.53801 112.5 12.5194 112.5Z" stroke="url(#paint4_linear_238_1286)" stroke-width="0.954778"/>
</g>
<defs>
<linearGradient id="paint0_linear_238_1286" x1="1.45547" y1="54.4101" x2="26.5222" y2="79.4767" gradientUnits="userSpaceOnUse">
<stop stop-color="#F9A60C"/>
<stop offset="0.542982" stop-color="#F9BF3F"/>
<stop offset="1" stop-color="#B08B2C"/>
</linearGradient>
<linearGradient id="paint1_linear_238_1286" x1="23.1157" y1="6.74604" x2="32.321" y2="15.9514" gradientUnits="userSpaceOnUse">
<stop stop-color="#F9A60C"/>
<stop offset="0.542982" stop-color="#F9BF3F"/>
<stop offset="1" stop-color="#B08B2C"/>
</linearGradient>
<linearGradient id="paint2_linear_238_1286" x1="51.6225" y1="42.3847" x2="60.8278" y2="51.59" gradientUnits="userSpaceOnUse">
<stop stop-color="#F9A60C"/>
<stop offset="0.542982" stop-color="#F9BF3F"/>
<stop offset="1" stop-color="#B08B2C"/>
</linearGradient>
<linearGradient id="paint3_linear_238_1286" x1="44.8218" y1="95.3022" x2="54.0271" y2="104.508" gradientUnits="userSpaceOnUse">
<stop stop-color="#F9A60C"/>
<stop offset="0.542982" stop-color="#F9BF3F"/>
<stop offset="1" stop-color="#B08B2C"/>
</linearGradient>
<linearGradient id="paint4_linear_238_1286" x1="4.29333" y1="104.752" x2="13.4987" y2="113.957" gradientUnits="userSpaceOnUse">
<stop stop-color="#F9A60C"/>
<stop offset="0.542982" stop-color="#F9BF3F"/>
<stop offset="1" stop-color="#B08B2C"/>
</linearGradient>
</defs>
</svg>
